<svg width="213" height="40" viewBox="0 0 213 40" fill="none" xmlns="http://www.w3.org/2000/svg">
<path d="M14.0378 34.3637C16.9638 35.8993 18.4268 36.667 20.0007 36.667V20.0003L4.39735 11.7881C4.37437 11.825 4.35182 11.8623 4.32965 11.8999C3.33398 13.5908 3.33398 15.6948 3.33398 19.9028V20.0978C3.33398 24.3058 3.33398 26.41 4.32965 28.1008C5.3253 29.7917 7.11837 30.7327 10.7045 32.6145L14.0378 34.3637Z" fill="#009A49"/>
<path opacity="0.7" d="M29.297 7.38554L25.9636 5.63629C23.0376 4.10077 21.5746 3.33301 20.0008 3.33301C18.427 3.33301 16.964 4.10077 14.0379 5.63629L10.7046 7.38554C7.19831 9.22554 5.40614 10.166 4.39746 11.7874L20.0008 19.9997L35.6041 11.7874C34.5953 10.166 32.8031 9.22554 29.297 7.38554Z" fill="#009A49"/>
<path opacity="0.5" d="M35.671 11.8999C35.6488 11.8623 35.6263 11.825 35.6033 11.7881L20 20.0003V36.667C21.5738 36.667 23.0368 35.8993 25.9628 34.3637L29.2962 32.6145C32.8823 30.7327 34.6753 29.7917 35.671 28.1008C36.6667 26.41 36.6667 24.3058 36.6667 20.0978V19.9028C36.6667 15.6948 36.6667 13.5908 35.671 11.8999Z" fill="#009A49"/>
<path d="M66.1212 13.452L62.2332 14.676C62.0652 13.692 61.5732 12.792 60.7572 11.976C59.9412 11.16 58.7652 10.752 57.2292 10.752C55.9572 10.752 54.9012 11.112 54.0612 11.832C53.2452 12.552 52.8372 13.416 52.8372 14.424C52.8372 16.176 53.8332 17.268 55.8252 17.7L59.4972 18.456C61.7052 18.888 63.4092 19.764 64.6092 21.084C65.8092 22.404 66.4092 23.976 66.4092 25.8C66.4092 27.912 65.5932 29.736 63.9612 31.272C62.3532 32.784 60.1572 33.54 57.3732 33.54C54.3732 33.54 52.0332 32.76 50.3532 31.2C48.6732 29.616 47.7252 27.78 47.5092 25.692L51.5412 24.54C51.6852 25.98 52.2612 27.192 53.2692 28.176C54.2772 29.16 55.6452 29.652 57.3732 29.652C58.8612 29.652 60.0012 29.328 60.7932 28.68C61.6092 28.008 62.0172 27.156 62.0172 26.124C62.0172 25.284 61.7172 24.564 61.1172 23.964C60.5172 23.34 59.6772 22.908 58.5972 22.668L54.9972 21.912C53.0052 21.504 51.4212 20.676 50.2452 19.428C49.0932 18.18 48.5172 16.62 48.5172 14.748C48.5172 12.612 49.3692 10.776 51.0732 9.24C52.7772 7.704 54.8172 6.936 57.1932 6.936C59.9052 6.936 61.9812 7.596 63.4212 8.916C64.8612 10.212 65.7612 11.724 66.1212 13.452ZM74.5362 22.704V33H70.3602V6.936H74.5362V17.16C75.6642 15.696 77.3322 14.964 79.5402 14.964C81.6042 14.964 83.1882 15.612 84.2922 16.908C85.3962 18.204 85.9482 19.872 85.9482 21.912V33H81.7722V22.632C81.7722 21.456 81.4842 20.52 80.9082 19.824C80.3322 19.104 79.4202 18.744 78.1722 18.744C77.0682 18.744 76.1922 19.116 75.5442 19.86C74.9202 20.604 74.5842 21.552 74.5362 22.704ZM95.244 28.32C96.204 29.304 97.368 29.796 98.736 29.796C100.104 29.796 101.256 29.304 102.192 28.32C103.152 27.336 103.632 25.968 103.632 24.216C103.632 22.488 103.152 21.144 102.192 20.184C101.256 19.2 100.104 18.708 98.736 18.708C97.368 18.708 96.204 19.2 95.244 20.184C94.308 21.144 93.84 22.488 93.84 24.216C93.84 25.944 94.308 27.312 95.244 28.32ZM98.736 14.928C101.376 14.928 103.548 15.804 105.252 17.556C106.98 19.308 107.844 21.528 107.844 24.216C107.844 26.904 106.98 29.136 105.252 30.912C103.548 32.664 101.376 33.54 98.736 33.54C96.12 33.54 93.948 32.664 92.22 30.912C90.516 29.136 89.664 26.904 89.664 24.216C89.664 21.528 90.516 19.308 92.22 17.556C93.948 15.804 96.12 14.928 98.736 14.928ZM116.02 39.84H111.88V15.468H115.912V17.844C116.368 17.052 117.088 16.392 118.072 15.864C119.056 15.336 120.196 15.072 121.492 15.072C124.012 15.072 125.992 15.936 127.432 17.664C128.872 19.368 129.592 21.552 129.592 24.216C129.592 26.88 128.836 29.088 127.324 30.84C125.812 32.568 123.82 33.432 121.348 33.432C120.148 33.432 119.08 33.204 118.144 32.748C117.208 32.292 116.5 31.716 116.02 31.02V39.84ZM125.416 24.216C125.416 22.584 124.984 21.276 124.12 20.292C123.256 19.284 122.116 18.78 120.7 18.78C119.308 18.78 118.168 19.284 117.28 20.292C116.416 21.276 115.984 22.584 115.984 24.216C115.984 25.872 116.416 27.204 117.28 28.212C118.168 29.22 119.308 29.724 120.7 29.724C122.092 29.724 123.22 29.22 124.084 28.212C124.972 27.204 125.416 25.872 125.416 24.216ZM138.286 29.04H142.822C145.174 29.04 147.106 28.296 148.618 26.808C150.154 25.296 150.922 23.124 150.922 20.292C150.922 17.436 150.166 15.252 148.654 13.74C147.142 12.204 145.21 11.436 142.858 11.436H138.286V29.04ZM142.966 33H133.966V7.476H143.002C146.602 7.476 149.566 8.616 151.894 10.896C154.246 13.176 155.422 16.308 155.422 20.292C155.422 24.252 154.246 27.36 151.894 29.616C149.542 31.872 146.566 33 142.966 33ZM162.573 22.308H171.177C171.129 21.204 170.733 20.28 169.989 19.536C169.269 18.792 168.225 18.42 166.857 18.42C165.609 18.42 164.601 18.816 163.833 19.608C163.065 20.376 162.645 21.276 162.573 22.308ZM171.645 26.88L175.173 27.996C174.669 29.604 173.721 30.936 172.329 31.992C170.961 33.024 169.269 33.54 167.253 33.54C164.757 33.54 162.633 32.688 160.881 30.984C159.153 29.28 158.289 27 158.289 24.144C158.289 21.456 159.129 19.248 160.809 17.52C162.513 15.792 164.517 14.928 166.821 14.928C169.509 14.928 171.609 15.756 173.121 17.412C174.633 19.044 175.389 21.252 175.389 24.036C175.389 24.78 175.353 25.224 175.281 25.368H162.465C162.513 26.688 162.993 27.78 163.905 28.644C164.841 29.508 165.957 29.94 167.253 29.94C169.509 29.94 170.973 28.92 171.645 26.88ZM177.832 28.248L181.468 27.24C181.54 28.08 181.888 28.788 182.512 29.364C183.136 29.94 183.976 30.228 185.032 30.228C185.848 30.228 186.484 30.036 186.94 29.652C187.42 29.268 187.66 28.788 187.66 28.212C187.66 27.204 186.976 26.556 185.608 26.268L183.016 25.692C181.504 25.356 180.34 24.732 179.524 23.82C178.708 22.908 178.3 21.828 178.3 20.58C178.3 19.044 178.924 17.724 180.172 16.62C181.42 15.492 182.944 14.928 184.744 14.928C185.896 14.928 186.916 15.096 187.804 15.432C188.692 15.768 189.376 16.212 189.856 16.764C190.36 17.292 190.744 17.808 191.008 18.312C191.272 18.816 191.44 19.32 191.512 19.824L187.984 20.832C187.888 20.16 187.576 19.56 187.048 19.032C186.544 18.48 185.776 18.204 184.744 18.204C184.024 18.204 183.424 18.408 182.944 18.816C182.464 19.2 182.224 19.668 182.224 20.22C182.224 21.204 182.812 21.816 183.988 22.056L186.652 22.596C188.284 22.956 189.532 23.604 190.396 24.54C191.26 25.476 191.692 26.604 191.692 27.924C191.692 29.388 191.104 30.696 189.928 31.848C188.776 32.976 187.156 33.54 185.068 33.54C183.868 33.54 182.788 33.36 181.828 33C180.892 32.64 180.148 32.184 179.596 31.632C179.068 31.056 178.648 30.492 178.336 29.94C178.048 29.364 177.88 28.8 177.832 28.248ZM212.249 15.468L205.049 22.884L212.393 33H207.281L202.133 25.836L199.973 28.104V33H195.833V6.936H199.973V22.56L206.705 15.468H212.249Z" fill="#1B1B1B"/>
</svg>
